<?xml version="1.0" encoding="UTF-8" standalone="no"?>
<svg
   xmlns:dc="http://purl.org/dc/elements/1.1/"
   xmlns:cc="http://creativecommons.org/ns#"
   xmlns:rdf="http://www.w3.org/1999/02/22-rdf-syntax-ns#"
   xmlns:svg="http://www.w3.org/2000/svg"
   xmlns="http://www.w3.org/2000/svg"
   xmlns:sodipodi="http://sodipodi.sourceforge.net/DTD/sodipodi-0.dtd"
   xmlns:inkscape="http://www.inkscape.org/namespaces/inkscape"
   version="1.1"
   id="svg116"
   xml:space="preserve"
   width="425.23169"
   height="304.37555"
   viewBox="0 0 425.23169 304.37555"
   sodipodi:docname="rd_logo.svg"
   inkscape:version="1.0.2 (e86c8708, 2021-01-15)"><metadata
     id="metadata122"><rdf:RDF><cc:Work
         rdf:about=""><dc:format>image/svg+xml</dc:format><dc:type
           rdf:resource="http://purl.org/dc/dcmitype/StillImage" /><dc:title></dc:title></cc:Work></rdf:RDF></metadata><defs
     id="defs120"><clipPath
       clipPathUnits="userSpaceOnUse"
       id="clipPath134"><path
         d="M 0,0 H 1920 V 1080 H 0 Z"
         id="path132" /></clipPath><clipPath
       clipPathUnits="userSpaceOnUse"
       id="clipPath148"><path
         d="m 948.962,595.5736 h 55.819 v 55.8188 h -55.819 z"
         id="path146" /></clipPath><clipPath
       clipPathUnits="userSpaceOnUse"
       id="clipPath154"><path
         d="M 0,0 H 1920 V 1080 H 0 Z"
         id="path152" /></clipPath><clipPath
       clipPathUnits="userSpaceOnUse"
       id="clipPath164"><path
         d="m 1015.143,575.0972 h 55.819 v 55.8188 h -55.819 z"
         id="path162" /></clipPath><clipPath
       clipPathUnits="userSpaceOnUse"
       id="clipPath170"><path
         d="M 0,0 H 1920 V 1080 H 0 Z"
         id="path168" /></clipPath><clipPath
       clipPathUnits="userSpaceOnUse"
       id="clipPath180"><path
         d="m 747.038,514.1476 v -55.8188 h 55.8187 v 55.8188 z"
         id="path178" /></clipPath><clipPath
       clipPathUnits="userSpaceOnUse"
       id="clipPath186"><path
         d="M 0,0 H 1920 V 1080 H 0 Z"
         id="path184" /></clipPath><clipPath
       clipPathUnits="userSpaceOnUse"
       id="clipPath196"><path
         d="m 813.2192,493.6712 v -55.8188 h 55.8187 v 55.8188 z"
         id="path194" /></clipPath><clipPath
       clipPathUnits="userSpaceOnUse"
       id="clipPath202"><path
         d="M 0,0 H 1920 V 1080 H 0 Z"
         id="path200" /></clipPath></defs><sodipodi:namedview
     pagecolor="#ffffff"
     bordercolor="#666666"
     borderopacity="1"
     objecttolerance="10"
     gridtolerance="10"
     guidetolerance="10"
     inkscape:pageopacity="0"
     inkscape:pageshadow="2"
     inkscape:window-width="1209"
     inkscape:window-height="794"
     id="namedview118"
     showgrid="false"
     inkscape:zoom="0.22392792"
     inkscape:cx="166.60147"
     inkscape:cy="203.658"
     inkscape:window-x="0"
     inkscape:window-y="23"
     inkscape:window-maximized="0"
     inkscape:current-layer="g124"
     fit-margin-top="0"
     fit-margin-left="0"
     fit-margin-right="0"
     fit-margin-bottom="0" /><g
     id="g124"
     inkscape:groupmode="layer"
     inkscape:label="rd_logo"
     transform="matrix(1.3333333,0,0,-1.3333333,-1001.3839,879.3189)"><g
       id="g126" /><g
       id="g128"
       transform="translate(112.02664,-420.51081)"><g
         id="g130"
         clip-path="url(#clipPath134)"><g
           id="g138"
           transform="matrix(0,1,1,0,799.47336,851.71833)"><path
             d="M 0,0 H 238.7911"
             style="fill:none;stroke:#009c00;stroke-width:24;stroke-linecap:butt;stroke-linejoin:miter;stroke-miterlimit:4;stroke-dasharray:24, 24;stroke-dashoffset:0;stroke-opacity:1"
             id="path140" /></g></g></g><g
       id="g142"
       transform="translate(0,-6)"><g
         id="g144"
         clip-path="url(#clipPath148)"><g
           id="g150"
           clip-path="url(#clipPath154)"><path
             d="m 995.8992,604.4552 c 10.5088,10.5087 10.5088,27.5468 0,38.0556 -10.5088,10.5087 -27.5468,10.5087 -38.0556,0 -10.5088,-10.5088 -10.5088,-27.5469 0,-38.0556 10.5088,-10.5088 27.5468,-10.5088 38.0556,0 z"
             style="fill:#9f52b8;fill-opacity:1;fill-rule:nonzero;stroke:none"
             id="path156" /></g></g></g><g
       id="g158"
       transform="translate(0,-6)"><g
         id="g160"
         clip-path="url(#clipPath164)"><g
           id="g166"
           clip-path="url(#clipPath170)"><path
             d="m 1062.08,583.9788 c 10.509,10.5087 10.509,27.5468 0,38.0556 -10.508,10.5088 -27.546,10.5088 -38.055,0 -10.509,-10.5088 -10.509,-27.5469 0,-38.0556 10.509,-10.5088 27.547,-10.5088 38.055,0 z"
             style="fill:#9f52b8;fill-opacity:1;fill-rule:nonzero;stroke:none"
             id="path172" /></g></g></g><g
       id="g174"
       transform="translate(3,-4.5)"><g
         id="g176"
         clip-path="url(#clipPath180)"><g
           id="g182"
           clip-path="url(#clipPath186)"><path
             d="m 755.9195,467.2104 c 10.5088,-10.5088 27.5469,-10.5088 38.0556,0 10.5088,10.5088 10.5088,27.5468 0,38.0556 -10.5087,10.5088 -27.5468,10.5088 -38.0556,0 -10.5087,-10.5088 -10.5087,-27.5468 0,-38.0556 z"
             style="fill:#dc2927;fill-opacity:1;fill-rule:nonzero;stroke:none"
             id="path188" /></g></g></g><g
       id="g190"
       transform="translate(3,-4.5)"><g
         id="g192"
         clip-path="url(#clipPath196)"><g
           id="g198"
           clip-path="url(#clipPath202)"><path
             d="m 822.1008,446.734 c 10.5087,-10.5088 27.5468,-10.5088 38.0556,0 10.5087,10.5088 10.5087,27.5468 0,38.0556 -10.5088,10.5088 -27.5469,10.5088 -38.0556,0 -10.5088,-10.5088 -10.5088,-27.5468 0,-38.0556 z"
             style="fill:#dc2927;fill-opacity:1;fill-rule:nonzero;stroke:none"
             id="path204" /></g></g></g></g></svg>
